<svg width="18" height="16" viewBox="0 0 18 16" fill="none" xmlns="http://www.w3.org/2000/svg">
<path d="M16.4168 1.75C14.6668 -0.0833333 11.7502 -0.0833333 9.91683 1.75C9.50016 2.16667 9.25016 2.58333 9.00016 3.08333C8.75016 2.58333 8.50016 2.16667 8.0835 1.75C6.25016 -0.0833333 3.41683 -0.0833333 1.5835 1.75C-0.166504 3.5 -0.166504 6.41667 1.5835 8.16667L8.41683 15L9.00016 15.5833L9.5835 15L16.4168 8.16667C18.1668 6.41667 18.1668 3.5 16.4168 1.75ZM9.3335 14.1667C9.16683 14.3333 8.91683 14.3333 8.75016 14.1667L4.00016 9.5L2.16683 7.66667C0.66683 6.16667 0.66683 3.83333 2.16683 2.33333C2.91683 1.58333 3.8335 1.25 4.8335 1.25C5.8335 1.25 6.75016 1.58333 7.50016 2.33333C8.16683 3 8.5835 3.91667 8.5835 4.83333H9.41683C9.41683 3.91667 9.8335 3 10.5002 2.33333C11.2502 1.58333 12.1668 1.25 13.1668 1.25C14.1668 1.25 15.0835 1.58333 15.8335 2.33333C17.3335 3.83333 17.3335 6.16667 15.8335 7.66667L9.3335 14.1667Z" fill="white" stroke="white" stroke-width="0.5"/>
</svg>
