<svg width="24" height="24" viewBox="0 0 24 24" fill="none" xmlns="http://www.w3.org/2000/svg">
<path d="M12.0002 13.2002C9.72017 13.2002 7.92017 11.4002 7.92017 9.12016C7.92017 6.84016 9.72017 5.16016 12.0002 5.16016C14.2802 5.16016 16.0802 6.96016 16.0802 9.24016C16.0802 11.5202 14.2802 13.2002 12.0002 13.2002ZM12.0002 6.00016C10.3202 6.00016 8.88017 7.44016 8.88017 9.12016C8.88017 10.8002 10.3202 12.2402 12.0002 12.2402C13.6802 12.2402 15.1202 10.8002 15.1202 9.12016C15.1202 7.44016 13.6802 6.00016 12.0002 6.00016Z" fill="#2C4459" stroke="#2C4459" stroke-width="0.5"/>
<path d="M23.6401 12.0001C23.6401 5.64011 18.4801 0.360107 12.0001 0.360107C5.52011 0.360107 0.360107 5.64011 0.360107 12.0001C0.360107 15.6001 2.16011 19.0801 5.04011 21.2401L5.16011 21.3601C7.20011 22.8001 9.60011 23.6401 12.0001 23.6401C12.3601 23.6401 12.6001 23.6401 12.9601 23.6401C15.1201 23.5201 17.0401 22.8001 18.8401 21.4801L18.9601 21.3601C21.8401 19.0801 23.6401 15.6001 23.6401 12.0001ZM10.3201 22.5601C10.0801 22.5601 9.96011 22.4401 9.72011 22.4401C9.36011 22.3201 9.00011 22.3201 8.64011 22.2001C8.40011 22.0801 8.16011 22.0801 8.04011 21.9601C7.80011 21.8401 7.56011 21.7201 7.20011 21.6001C6.96011 21.4801 6.84011 21.3601 6.60011 21.2401C6.36011 21.1201 6.12011 21.0001 5.88011 20.7601V20.6401C5.88011 17.2801 8.64011 14.5201 12.0001 14.5201C15.3601 14.5201 18.1201 17.2801 18.1201 20.6401V20.7601C17.8801 20.8801 17.6401 21.1201 17.4001 21.2401C17.1601 21.3601 17.0401 21.4801 16.8001 21.6001C16.5601 21.7201 16.2001 21.8401 15.9601 21.9601C15.7201 22.0801 15.6001 22.2001 15.3601 22.2001C15.0001 22.3201 14.6401 22.3201 14.2801 22.4401C14.0401 22.4401 13.9201 22.5601 13.6801 22.5601C13.0801 22.6801 12.6001 22.6801 12.0001 22.6801C11.4001 22.6801 10.9201 22.6801 10.3201 22.5601ZM18.9601 20.1601C18.7201 16.5601 15.7201 13.6801 12.0001 13.6801C8.28011 13.6801 5.28011 16.5601 5.04011 20.1601C2.64011 18.1201 1.32011 15.2401 1.32011 12.0001C1.32011 6.12011 6.12011 1.32011 12.0001 1.32011C17.8801 1.32011 22.6801 6.12011 22.6801 12.0001C22.6801 15.1201 21.3601 18.1201 18.9601 20.1601Z" fill="#2C4459" stroke="#2C4459" stroke-width="0.5"/>
</svg>
