<svg width="28" height="28" viewBox="0 0 28 28" fill="none" xmlns="http://www.w3.org/2000/svg">
<path d="M13.4092 3.97498C13.5969 3.80408 13.5969 3.52707 13.4092 3.35625C13.2215 3.18542 12.9173 3.18542 12.7297 3.35625L10.6451 5.25413C10.4575 5.42503 10.4575 5.70196 10.6451 5.87286C10.8327 6.04368 11.137 6.04368 11.3246 5.87286L13.4092 3.97498Z" fill="#F24B4B"/>
<path d="M8.36467 7.68591C8.55238 7.51509 8.55238 7.23809 8.36467 7.06726C8.17709 6.89644 7.87278 6.89644 7.68518 7.06726L5.60069 8.96515C5.41305 9.13604 5.41305 9.41297 5.60069 9.5838C5.78826 9.75462 6.09251 9.75462 6.28015 9.5838L8.36467 7.68591Z" fill="#F24B4B"/>
<path d="M15.2329 8.2113C15.4205 8.04048 15.4205 7.76347 15.2329 7.59265C15.0453 7.42183 14.741 7.42183 14.5534 7.59265L12.4688 9.49046C12.2812 9.66136 12.2812 9.93829 12.4688 10.1092C12.6565 10.28 12.9607 10.28 13.1483 10.1092L15.2329 8.2113Z" fill="#F24B4B"/>
<path d="M20.1465 4.41548C20.3341 4.24466 20.3341 3.96765 20.1465 3.79675C19.9588 3.62601 19.6546 3.62601 19.467 3.79675L17.3824 5.69471C17.1948 5.86546 17.1948 6.14247 17.3824 6.31329C17.57 6.48411 17.8743 6.48411 18.0619 6.31329L20.1465 4.41548Z" fill="#F24B4B"/>
<path d="M22.399 8.49945C22.5865 8.32863 22.5865 8.05154 22.399 7.88072C22.2113 7.7099 21.907 7.7099 21.7194 7.88072L19.6349 9.7786C19.4472 9.9495 19.4472 10.2264 19.6349 10.3973C19.8226 10.5681 20.1267 10.5681 20.3144 10.3973L22.399 8.49945Z" fill="#F24B4B"/>
<path d="M13.9998 -0.000106812C17.8672 -0.000106812 21.3686 1.4684 23.903 3.84268C26.434 6.21384 27.9997 9.48772 27.9997 13.1023C27.9997 13.1345 27.9977 13.1747 27.9957 13.2826L27.9948 13.3228L27.5162 13.3159L27.9967 13.3231C27.9923 13.5624 27.778 13.7534 27.5162 13.7533V13.7534H0.48341C0.218013 13.7534 0.00290033 13.5575 0.00290033 13.3159C0.00290033 13.3056 0.00329138 13.2954 0.00404091 13.2852L0.00397574 13.2826C0.00198786 13.1747 0 13.1345 0 13.1023C0 9.48772 1.56556 6.21384 4.0967 3.84268C6.63107 1.4684 10.1324 -0.000106812 13.9998 -0.000106812ZM23.2159 4.45107C20.8574 2.24155 17.5989 0.874893 13.9998 0.874893C10.4007 0.874893 7.14231 2.24155 4.78375 4.45107C2.47414 6.61465 1.02639 9.58729 0.963428 12.8784H27.0362C26.9732 9.58729 25.5255 6.61465 23.2159 4.45107Z" fill="#F24B4B"/>
<path d="M1.84917 12.8775H26.1188C26.3841 12.8775 26.5993 13.0734 26.5993 13.315C26.5993 13.3418 26.5966 13.368 26.5916 13.3934L25.0962 27.6035L24.6195 27.5625L25.0978 27.6043C25.074 27.8307 24.8645 28.0003 24.6195 28H3.34847C3.08536 28 2.87168 27.8074 2.86803 27.5687L1.37251 13.3567L1.37088 13.3568C1.34555 13.1163 1.53919 12.9026 1.80335 12.8796C1.81873 12.8782 1.83408 12.8775 1.84917 12.8775ZM25.5917 13.7525H2.37634L3.78356 27.125H24.1845L25.5917 13.7525Z" fill="#F24B4B"/>
<path d="M7.01915 17.0632C7.01915 16.8215 6.80401 16.6257 6.53864 16.6257C6.27328 16.6257 6.05811 16.8215 6.05811 17.0632V27.5625C6.05811 27.8041 6.27328 28 6.53864 28C6.80401 28 7.01915 27.8041 7.01915 27.5625V17.0632Z" fill="#F24B4B"/>
<path d="M10.7418 17.0632C10.7418 16.8215 10.5266 16.6257 10.2613 16.6257C9.99583 16.6257 9.78076 16.8215 9.78076 17.0632V27.5625C9.78076 27.8041 9.99583 28 10.2613 28C10.5266 28 10.7418 27.8041 10.7418 27.5625V17.0632Z" fill="#F24B4B"/>
<path d="M14.4641 17.0632C14.4641 16.8215 14.2489 16.6257 13.9835 16.6257C13.7181 16.6257 13.5029 16.8215 13.5029 17.0632V27.5625C13.5029 27.8041 13.7181 28 13.9835 28C14.2489 28 14.4641 27.8041 14.4641 27.5625V17.0632Z" fill="#F24B4B"/>
<path d="M18.1866 17.0632C18.1866 16.8215 17.9716 16.6257 17.7061 16.6257C17.4408 16.6257 17.2256 16.8215 17.2256 17.0632V27.5625C17.2256 27.8041 17.4408 28 17.7061 28C17.9716 28 18.1866 27.8041 18.1866 27.5625V17.0632Z" fill="#F24B4B"/>
<path d="M21.9092 17.0632C21.9092 16.8215 21.6941 16.6257 21.4287 16.6257C21.1633 16.6257 20.9482 16.8215 20.9482 17.0632V27.5625C20.9482 27.8041 21.1633 28 21.4287 28C21.6941 28 21.9092 27.8041 21.9092 27.5625V17.0632Z" fill="#F24B4B"/>
</svg>
