<svg width="24" height="24" viewBox="0 0 24 24" fill="none" xmlns="http://www.w3.org/2000/svg">
<path d="M11.9998 1.55997C12.2398 1.55997 12.5998 1.55997 12.8398 1.67997C15.7198 2.03997 17.9998 4.55997 18.2398 7.43997C18.3598 8.63997 18.1198 9.83997 17.5198 10.92L11.9998 21.36L6.4798 10.92C5.9998 9.95997 5.7598 8.99997 5.7598 7.91997C5.7598 4.43997 8.5198 1.55997 11.9998 1.55997ZM11.9998 0.719971C8.0398 0.719971 4.7998 3.95997 4.7998 7.91997C4.7998 9.11997 5.1598 10.32 5.6398 11.4C7.5598 15.12 9.5998 18.84 11.5198 22.44C11.6398 22.68 11.7598 22.68 11.9998 22.68C12.2398 22.68 12.3598 22.56 12.4798 22.44C14.3998 18.72 16.4398 15 18.3598 11.4C18.9598 10.2 19.3198 8.87997 19.1998 7.43997C18.9598 4.07997 16.3198 1.31997 13.0798 0.839971C12.7198 0.719971 12.3598 0.719971 11.9998 0.719971Z" fill="#2C4459" stroke="#2C4459" stroke-width="0.5"/>
<path d="M11.9998 5.87992C13.3198 5.87992 14.3998 6.95992 14.3998 8.27992C14.3998 9.59992 13.3198 10.6799 11.9998 10.6799C10.6798 10.6799 9.59977 9.59992 9.59977 8.27992C9.59977 6.95992 10.6798 5.87992 11.9998 5.87992ZM11.9998 4.91992C10.1998 4.91992 8.75977 6.35992 8.75977 8.15992C8.75977 9.95992 10.1998 11.5199 11.9998 11.5199C13.7998 11.5199 15.2398 10.0799 15.2398 8.27992C15.2398 6.47992 13.7998 4.91992 11.9998 4.91992Z" fill="#2C4459" stroke="#2C4459" stroke-width="0.5"/>
</svg>
