<svg width="64" height="64" viewBox="0 0 64 64" fill="none" xmlns="http://www.w3.org/2000/svg">
<g opacity="0.5">
<g filter="url(#filter0_d)">
<path d="M32 56C18.7452 56 8 45.2548 8 32C8 18.7452 18.7452 8 32 8C45.2548 8 56 18.7452 56 32C56 45.2548 45.2548 56 32 56Z" fill="white"/>
</g>
<path d="M36.5943 17.6043L36.5943 17.6043L22.8096 31.404C22.8096 31.4041 22.8095 31.4041 22.8095 31.4042C22.73 31.4831 22.6675 31.5776 22.6259 31.6816C22.5843 31.7857 22.5645 31.8973 22.5677 32.0093C22.5709 32.1214 22.5971 32.2316 22.6446 32.3332C22.6916 32.4338 22.7586 32.5238 22.8414 32.5978L36.6243 46.3956L36.5943 17.6043ZM36.5943 17.6043L36.5955 17.6032M36.5943 17.6043L36.5955 17.6032M36.5955 17.6032C36.7569 17.4467 36.9728 17.3592 37.1976 17.3592C37.4224 17.3592 37.6383 17.4467 37.7997 17.6032L37.7997 17.6032M36.5955 17.6032L37.7997 17.6032M37.7997 17.6032L37.8005 17.604M37.7997 17.6032L37.8005 17.604M37.8005 17.604C37.8802 17.683 37.9434 17.777 37.9866 17.8806C38.0297 17.9842 38.0519 18.0953 38.0519 18.2075C38.0519 18.3197 38.0297 18.4308 37.9866 18.5344C37.9434 18.6379 37.8803 18.7318 37.8007 18.8108C37.8006 18.8109 37.8006 18.8109 37.8005 18.811L24.6414 31.9999L37.8305 45.189C37.8306 45.189 37.8306 45.1891 37.8306 45.1891C37.9102 45.2681 37.9734 45.3621 38.0166 45.4656C38.0597 45.5692 38.0819 45.6803 38.0819 45.7925C38.0819 45.9047 38.0597 46.0158 38.0166 46.1194C37.9735 46.2227 37.9105 46.3166 37.831 46.3955M37.8005 17.604L37.2348 46.65M37.2348 46.65L37.2365 46.65C37.4605 46.6468 37.6741 46.5553 37.831 46.3955M37.2348 46.65C37.0057 46.6494 36.7861 46.558 36.6243 46.3957L37.2348 46.65ZM37.831 46.3955C37.8312 46.3953 37.8313 46.3951 37.8315 46.395L37.7601 46.325L37.8305 46.396C37.8307 46.3958 37.8309 46.3956 37.831 46.3955Z" fill="#2C4459" stroke="#2C4459" stroke-width="0.2"/>
</g>
<defs>
<filter id="filter0_d" x="0" y="0" width="64" height="64" filterUnits="userSpaceOnUse" color-interpolation-filters="sRGB">
<feFlood flood-opacity="0" result="BackgroundImageFix"/>
<feColorMatrix in="SourceAlpha" type="matrix" values="0 0 0 0 0 0 0 0 0 0 0 0 0 0 0 0 0 0 127 0" result="hardAlpha"/>
<feOffset/>
<feGaussianBlur stdDeviation="4"/>
<feComposite in2="hardAlpha" operator="out"/>
<feColorMatrix type="matrix" values="0 0 0 0 0.172549 0 0 0 0 0.266667 0 0 0 0 0.34902 0 0 0 0.25 0"/>
<feBlend mode="normal" in2="BackgroundImageFix" result="effect1_dropShadow"/>
<feBlend mode="normal" in="SourceGraphic" in2="effect1_dropShadow" result="shape"/>
</filter>
</defs>
</svg>
