<svg width="20" height="20" viewBox="0 0 20 20" fill="none" xmlns="http://www.w3.org/2000/svg">
<path d="M10 2.78125C13.9703 2.78125 17.2188 6.02969 17.2188 10C17.2188 13.9703 13.9703 17.2188 10 17.2188C6.02969 17.2188 2.78125 13.9703 2.78125 10C2.78125 6.02969 6.02969 2.78125 10 2.78125ZM10 1.75C5.4625 1.75 1.75 5.4625 1.75 10C1.75 14.5375 5.4625 18.25 10 18.25C14.5375 18.25 18.25 14.5375 18.25 10C18.25 5.4625 14.5375 1.75 10 1.75Z" fill="#E43D3D"/>
<path d="M10 5L10 10" stroke="#E43D3D" stroke-width="1.5" stroke-miterlimit="10" stroke-linecap="round"/>
<path d="M10 10L13 13" stroke="#E43D3D" stroke-width="1.5" stroke-miterlimit="10" stroke-linecap="round"/>
</svg>
