<svg width="64" height="64" viewBox="0 0 64 64" fill="none" xmlns="http://www.w3.org/2000/svg">
<g opacity="0.5">
<g filter="url(#filter0_d)">
<path d="M32 56C45.2548 56 56 45.2548 56 32C56 18.7452 45.2548 8 32 8C18.7452 8 8 18.7452 8 32C8 45.2548 18.7452 56 32 56Z" fill="white"/>
</g>
<path d="M27.4057 17.6043L27.4057 17.6043L41.1904 31.404C41.1904 31.4041 41.1905 31.4041 41.1905 31.4042C41.27 31.4831 41.3325 31.5776 41.3741 31.6816C41.4157 31.7857 41.4355 31.8973 41.4323 32.0093C41.4291 32.1214 41.4029 32.2316 41.3554 32.3332C41.3084 32.4338 41.2414 32.5238 41.1586 32.5978L27.3757 46.3956L27.4057 17.6043ZM27.4057 17.6043L27.4045 17.6032M27.4057 17.6043L27.4045 17.6032M27.4045 17.6032C27.2431 17.4467 27.0272 17.3592 26.8024 17.3592C26.5776 17.3592 26.3617 17.4467 26.2003 17.6032L26.2003 17.6032M27.4045 17.6032L26.2003 17.6032M26.2003 17.6032L26.1995 17.604M26.2003 17.6032L26.1995 17.604M26.1995 17.604C26.1198 17.683 26.0566 17.777 26.0134 17.8806C25.9703 17.9842 25.9481 18.0953 25.9481 18.2075C25.9481 18.3197 25.9703 18.4308 26.0134 18.5344C26.0566 18.6379 26.1197 18.7318 26.1993 18.8108C26.1994 18.8109 26.1994 18.8109 26.1995 18.811L39.3586 31.9999L26.1695 45.189C26.1694 45.189 26.1694 45.1891 26.1694 45.1891C26.0898 45.2681 26.0266 45.3621 25.9834 45.4656C25.9403 45.5692 25.9181 45.6803 25.9181 45.7925C25.9181 45.9047 25.9403 46.0158 25.9834 46.1194C26.0265 46.2227 26.0895 46.3166 26.169 46.3955M26.1995 17.604L26.7652 46.65M26.7652 46.65L26.7635 46.65C26.5395 46.6468 26.3259 46.5553 26.169 46.3955M26.7652 46.65C26.9943 46.6494 27.2139 46.558 27.3757 46.3957L26.7652 46.65ZM26.169 46.3955C26.1688 46.3953 26.1687 46.3951 26.1685 46.395L26.2399 46.325L26.1695 46.396C26.1693 46.3958 26.1691 46.3956 26.169 46.3955Z" fill="#2C4459" stroke="#2C4459" stroke-width="0.2"/>
</g>
<defs>
<filter id="filter0_d" x="0" y="0" width="64" height="64" filterUnits="userSpaceOnUse" color-interpolation-filters="sRGB">
<feFlood flood-opacity="0" result="BackgroundImageFix"/>
<feColorMatrix in="SourceAlpha" type="matrix" values="0 0 0 0 0 0 0 0 0 0 0 0 0 0 0 0 0 0 127 0" result="hardAlpha"/>
<feOffset/>
<feGaussianBlur stdDeviation="4"/>
<feComposite in2="hardAlpha" operator="out"/>
<feColorMatrix type="matrix" values="0 0 0 0 0.172549 0 0 0 0 0.266667 0 0 0 0 0.34902 0 0 0 0.25 0"/>
<feBlend mode="normal" in2="BackgroundImageFix" result="effect1_dropShadow"/>
<feBlend mode="normal" in="SourceGraphic" in2="effect1_dropShadow" result="shape"/>
</filter>
</defs>
</svg>
